<svg xmlns="http://www.w3.org/2000/svg" viewBox="0 0 369.81481481481484 68.41779525815134" width="310" height="58">
  <g transform="matrix(0.720162716536051,0,0,0.720162716536051,301.39929664882993,-2.192737904076515)" fill="#3a803b">
    <path d="M94.964,42.098c-0.435-7.843-6.865-12.563-13.552-11.349c-1.292,0.234-2.589,0.438-4.04,0.682c0.107-1.135,0.195-2.097,0.287-3.058c0.454-4.721-0.076-9.235-3.005-13.164c-2.712-3.637-6.344-5.534-10.93-5.156c-4.827,0.397-8.336,3.077-11.116,6.855c-0.873,1.187-1.688,2.418-2.568,3.684c-0.248-0.32-0.422-0.53-0.58-0.752c-0.204-0.287-0.399-0.58-0.591-0.875c-2.009-3.081-4.313-5.83-7.695-7.541c-6.775-3.428-13.923-0.419-17.068,5.835c-1.686,3.352-2.128,6.914-1.751,10.613c0.117,1.144,0.183,2.294,0.284,3.583c-0.967-0.184-1.738-0.302-2.494-0.48C11.021,28.823,5.032,35.43,5,43.139c-0.013,3.286,0.803,6.338,2.329,9.22c2.306,4.355,5.628,7.554,10.4,9.08c1.173,0.375,2.365,0.689,3.638,1.056c-0.248,0.695-0.435,1.244-0.637,1.787c-2.066,5.542-2.75,11.23-1.685,17.069c0.435,2.385,1.41,4.553,3.254,6.232c2.758,2.511,6.085,2.814,9.475,2.066c3.658-0.807,7.242-1.952,10.848-2.986c4.944-1.418,9.871-1.423,14.816,0.007c3.603,1.042,7.204,2.11,10.849,2.987c2.26,0.544,4.591,0.495,6.81-0.39c3.33-1.329,5.056-4.015,5.755-7.341c1.038-4.942,0.847-9.88-0.622-14.738c-0.471-1.559-0.984-3.105-1.49-4.695c0.305-0.106,0.517-0.198,0.739-0.254c2.355-0.594,4.73-1.18,6.744-2.605C92.264,55.362,95.375,49.508,94.964,42.098z M58.991,17.561c1.71-1.527,3.721-2.508,6.077-2.324c3.513,0.274,5.658,2.459,6.672,5.588c2.024,6.246,0.518,11.821-3.923,16.552c-1.756,1.871-4.02,3.066-6.706,2.803c-3.654-0.358-5.672-2.77-6.722-6.012c-0.52-1.605-0.579-3.36-0.847-5.047C53.981,24.551,55.565,20.621,58.991,17.561z M29.725,18.162c2.446-3.224,6.543-3.888,9.901-1.64c4.109,2.75,6.455,7.289,6.692,13.251c-0.021,2.451-0.462,5.112-2.218,7.399c-2.546,3.316-6.479,4.039-9.969,1.721c-4.22-2.803-6.138-6.962-6.621-11.859C27.194,23.835,27.728,20.795,29.725,18.162z M18.087,56.041c-5.139-2.3-8.724-9.138-7.689-14.666c0.814-4.351,4.771-6.628,8.917-5.132c5.142,1.855,9.014,7.578,8.884,13.532c-0.022,1.704-0.501,3.651-1.987,5.212C24.182,57.117,21.289,57.474,18.087,56.041z M75.705,80.922c-0.528,2.58-2.161,4.081-4.731,3.712c-3.188-0.458-6.324-1.372-9.433-2.264c-4.461-1.28-8.951-2.489-13.617-1.907c-3.203,0.399-6.36,1.223-9.51,1.974c-2.583,0.616-5.098,1.532-7.692,2.09c-3.841,0.826-5.919-0.622-6.58-4.495c-1.122-6.573,0.346-12.686,3.614-18.39c3.397-5.928,8.117-10.556,14.059-13.957c5.563-3.185,11.074-3.15,16.572,0.106c8.27,4.899,14.17,11.737,16.872,21.064c0.657,2.269,0.819,4.681,1.173,6.809C76.173,77.601,76.041,79.282,75.705,80.922z M80.81,56.491c-3.97,1.308-7.847-0.755-8.739-4.848c-1.277-5.864,2.599-13.065,8.203-15.241c4.862-1.888,9.213,0.92,9.53,6.153c0.019,0.312,0.002,0.626,0.002,0.939C89.885,48.576,85.985,54.786,80.81,56.491z"/>
    <path d="M53.986,50.484 45.278,50.484 45.278,59.191 36.059,59.191 36.059,68.411 45.278,68.411 45.278,77.119 53.986,77.119 53.986,68.411 63.206,68.411 63.206,59.191 53.986,59.191z"/>
  </g>
  <g transform="matrix(2.5129549389716024,0,0,2.5129549389716024,-1.909845729653012,-16.33420470677483)" fill="#3a803b">
    <path d="M0.76 20 l0 -2.32 l1.48 0 l0 -8.58 l-1.44 0 l0 -2.32 l6.24 0 l0 2.32 l-1.44 0 l0 8.38 l3.46 0 l0 -2.04 l2.52 0 l0 4.56 l-10.82 0 z M14.578 20 l0 -2.32 l1.48 0 l0 -8.58 l-1.48 0 l0 -2.32 l10.56 0 l0 4.26 l-2.52 0 l0 -1.74 l-3.22 0 l0 2.78 l3.78 0 l0 2.52 l-3.78 0 l0 2.88 l3.34 0 l0 -1.94 l2.52 0 l0 4.46 l-10.68 0 z M37.816 15.36 l3.06 0.86 c-0.38 2.3 -2.1 4.06 -5.62 4.06 c-4.64 0 -6.58 -3.04 -6.58 -7 c0 -4.26 2.3 -6.78 6.6 -6.78 c3.44 0 5.44 1.6 5.44 3.96 c0 0.12 -0.02 0.22 -0.02 0.34 l-3.3 0.74 l0 -0.28 c0 -1.24 -0.54 -1.98 -2.2 -1.98 c-2.3 0 -2.98 1.34 -2.98 3.98 c0 2.92 0.9 4.24 2.96 4.24 c1.3 0 2.62 -0.56 2.64 -2.14 z M43.854 20 l0 -2.64 l6.82 -8 l-4.12 0 l0 1.98 l-2.52 0 l0 -4.56 l10.8 0 l0 2.64 l-6.8 8 l4.38 0 l0 -1.98 l2.52 0 l0 4.56 l-11.08 0 z M58.372 20 l0 -2.32 l1.44 0 l0 -8.58 l-1.44 0 l0 -2.32 l4.7 0 l5.44 8.04 l0 -5.72 l-1.44 0 l0 -2.32 l6.08 0 l0 2.32 l-1.44 0 l0 10.9 l-3.28 0 l-5.42 -7.92 l0 5.6 l1.44 0 l0 2.32 l-6.08 0 z M76.43 20 l0 -2.32 l1.44 0 l0 -8.58 l-1.44 0 l0 -2.32 l6.24 0 l0 2.32 l-1.44 0 l0 8.58 l1.44 0 l0 2.32 l-6.24 0 z M95.168 15.36 l3.06 0.86 c-0.38 2.3 -2.1 4.06 -5.62 4.06 c-4.64 0 -6.58 -3.04 -6.58 -7 c0 -4.26 2.3 -6.78 6.6 -6.78 c3.44 0 5.44 1.6 5.44 3.96 c0 0.12 -0.02 0.22 -0.02 0.34 l-3.3 0.74 l0 -0.28 c0 -1.24 -0.54 -1.98 -2.2 -1.98 c-2.3 0 -2.98 1.34 -2.98 3.98 c0 2.92 0.9 4.24 2.96 4.24 c1.3 0 2.62 -0.56 2.64 -2.14 z M100.846 20 l0 -2.32 l1.02 0 l3.92 -10.9 l3.08 0 l4.34 10.9 l1.04 0 l0 2.32 l-5.52 0 l0 -2.32 l1.24 0 l-0.5 -1.32 l-4.24 0 l-0.44 1.32 l1.26 0 l0 2.32 l-5.2 0 z M105.966 14.04 l2.66 0 l-1.42 -4.02 z"/>
  </g>
  <g transform="matrix(1.4026697024962553,0,0,1.4026697024962553,-0.28053367296123716,35.48989912278357)" fill="#3a803b">
    <path d="M5.16 20 l-3.94 -10.9 l-1.02 0 l0 -2.32 l5.84 0 l0 2.32 l-1.34 0 l2.12 6.3 l2.22 -6.3 l-1.38 0 l0 -2.32 l5.42 0 l0 2.32 l-1.32 0 l2.28 6.3 l2.02 -6.3 l-1.32 0 l0 -2.32 l5.72 0 l0 2.32 l-1.12 0 l-3.72 10.9 l-2.8 0 l-2.48 -6.76 l-2.38 6.76 l-2.8 0 z M23.358 20 l0 -2.32 l1.48 0 l0 -8.58 l-1.48 0 l0 -2.32 l10.56 0 l0 4.26 l-2.52 0 l0 -1.74 l-3.22 0 l0 2.78 l3.78 0 l0 2.52 l-3.78 0 l0 2.88 l3.34 0 l0 -1.94 l2.52 0 l0 4.46 l-10.68 0 z M40.236 20 l0 -2.32 l1.44 0 l0 -8.38 l-2.02 0 l0 2.04 l-2.52 0 l0 -4.56 l12.44 0 l0 4.56 l-2.52 0 l0 -2.04 l-2.02 0 l0 8.38 l1.44 0 l0 2.32 l-6.24 0 z M52.594 20 l0 -2.32 l1.48 0 l0 -8.58 l-1.48 0 l0 -2.32 l10.56 0 l0 4.26 l-2.52 0 l0 -1.74 l-3.22 0 l0 2.78 l3.78 0 l0 2.52 l-3.78 0 l0 2.88 l3.34 0 l0 -1.94 l2.52 0 l0 4.46 l-10.68 0 z M66.832 20 l0 -2.32 l1.44 0 l0 -8.58 l-1.44 0 l0 -2.32 l6.62 0 c3.66 0 4.96 1.64 4.96 3.76 c0 1.98 -1.12 3.04 -2.34 3.62 c0.52 0.28 0.9 0.8 1.24 1.74 c0.28 0.78 0.4 1.5 1.7 1.5 l0.16 0 l-0.58 2.72 c-0.28 0.04 -0.54 0.06 -0.78 0.06 c-2.52 0 -3.16 -1.82 -3.66 -3.16 c-0.58 -1.82 -0.78 -1.98 -1.9 -1.98 l-0.62 0 l0 2.64 l1.44 0 l0 2.32 l-6.24 0 z M71.632 12.52 l1.74 0 c1.22 0 1.68 -0.76 1.68 -1.54 c0 -1.22 -0.56 -1.68 -1.68 -1.68 l-1.74 0 l0 3.22 z M85.31 20 l0 -2.32 l1.44 0 l0 -2.42 l-4 -6.16 l-1.1 0 l0 -2.32 l6.04 0 l0 2.32 l-1.2 0 l2.02 3.22 l1.88 -3.22 l-1.12 0 l0 -2.32 l5.76 0 l0 2.32 l-1.1 0 l-3.82 6.16 l0 2.42 l1.44 0 l0 2.32 l-6.24 0 z M98.028 20 l0 -2.32 l1.44 0 l0 -8.58 l-1.44 0 l0 -2.32 l4.7 0 l5.44 8.04 l0 -5.72 l-1.44 0 l0 -2.32 l6.08 0 l0 2.32 l-1.44 0 l0 10.9 l-3.28 0 l-5.42 -7.92 l0 5.6 l1.44 0 l0 2.32 l-6.08 0 z M115.606 20 l0 -2.32 l1.02 0 l3.92 -10.9 l3.08 0 l4.34 10.9 l1.04 0 l0 2.32 l-5.52 0 l0 -2.32 l1.24 0 l-0.5 -1.32 l-4.24 0 l-0.44 1.32 l1.26 0 l0 2.32 l-5.2 0 z M120.726 14.04 l2.66 0 l-1.42 -4.02 z M131.824 20 l0 -2.32 l1.44 0 l0 -8.58 l-1.44 0 l0 -2.32 l6.62 0 c3.66 0 4.96 1.64 4.96 3.76 c0 1.98 -1.12 3.04 -2.34 3.62 c0.52 0.28 0.9 0.8 1.24 1.74 c0.28 0.78 0.4 1.5 1.7 1.5 l0.16 0 l-0.58 2.72 c-0.28 0.04 -0.54 0.06 -0.78 0.06 c-2.52 0 -3.16 -1.82 -3.66 -3.16 c-0.58 -1.82 -0.78 -1.98 -1.9 -1.98 l-0.62 0 l0 2.64 l1.44 0 l0 2.32 l-6.24 0 z M136.624 12.52 l1.74 0 c1.22 0 1.68 -0.76 1.68 -1.54 c0 -1.22 -0.56 -1.68 -1.68 -1.68 l-1.74 0 l0 3.22 z M150.302 20 l0 -2.32 l1.44 0 l0 -2.42 l-4 -6.16 l-1.1 0 l0 -2.32 l6.04 0 l0 2.32 l-1.2 0 l2.02 3.22 l1.88 -3.22 l-1.12 0 l0 -2.32 l5.76 0 l0 2.32 l-1.1 0 l-3.82 6.16 l0 2.42 l1.44 0 l0 2.32 l-6.24 0 z M161.22 23.66 l0 -2.84 s0.18 0.04 0.58 0.04 c1.84 0 2.68 -0.88 2.68 -2.86 l0 -8.9 l-1.44 0 l0 -2.32 l6.24 0 l0 2.32 l-1.44 0 l0 9.08 c0 3.82 -2.26 5.56 -5.34 5.56 c-0.32 0 -0.72 -0.02 -1.28 -0.08 z M172.538 20 l0 -2.32 l1.44 0 l0 -8.58 l-1.44 0 l0 -2.32 l4.7 0 l5.44 8.04 l0 -5.72 l-1.44 0 l0 -2.32 l6.08 0 l0 2.32 l-1.44 0 l0 10.9 l-3.28 0 l-5.42 -7.92 l0 5.6 l1.44 0 l0 2.32 l-6.08 0 z M190.116 20 l0 -2.32 l1.02 0 l3.92 -10.9 l3.08 0 l4.34 10.9 l1.04 0 l0 2.32 l-5.52 0 l0 -2.32 l1.24 0 l-0.5 -1.32 l-4.24 0 l-0.44 1.32 l1.26 0 l0 2.32 l-5.2 0 z M195.236 14.04 l2.66 0 l-1.42 -4.02 z"/>
  </g>
</svg>
